<svg xmlns="http://www.w3.org/2000/svg" xmlns:xlink="http://www.w3.org/1999/xlink" width="1600"
    zoomAndPan="magnify" viewBox="0 0 800 809.999993" height="1300"
    preserveAspectRatio="xMidYMid meet" version="1.0">
    <rect x="-144" width="900" fill="none" y="-80.999999" height="971.999992" fill-opacity="1" />
    <rect x="-144" width="900" fill="none" y="-80.999999" height="971.999992" fill-opacity="1" />
    <g transform="translate(-300, 0)">
        <path fill="#f37342"
        d="M 868.855469 115.980469 C 876.664062 122.15625 884.25 128.53125 891.816406 135 C 893.742188 136.464844 895.667969 137.925781 897.652344 139.433594 C 954.238281 183.425781 987.488281 262.03125 997.117188 330.78125 C 1004.097656 393.804688 995.644531 468.695312 960.117188 522.835938 C 955.417969 529.871094 955.417969 529.871094 956.855469 536.605469 C 959.679688 544.238281 962.902344 547.945312 968.707031 553.617188 C 970.679688 555.570312 972.65625 557.519531 974.6875 559.53125 C 976.832031 561.605469 978.972656 563.679688 981.179688 565.8125 C 983.371094 567.976562 985.5625 570.140625 987.820312 572.367188 C 994.828125 579.28125 1001.867188 586.160156 1008.910156 593.035156 C 1015.9375 599.914062 1022.960938 606.796875 1029.964844 613.703125 C 1034.320312 617.996094 1038.695312 622.277344 1043.085938 626.539062 C 1046.0625 629.464844 1046.0625 629.464844 1049.097656 632.453125 C 1050.84375 634.15625 1052.585938 635.859375 1054.386719 637.613281 C 1063.019531 647.597656 1066.320312 656.667969 1066.550781 669.777344 C 1066.644531 672.121094 1066.734375 674.464844 1066.828125 676.882812 C 1062.972656 697.082031 1045.707031 711.707031 1031.605469 725.625 C 1029.777344 727.476562 1027.949219 729.328125 1026.070312 731.234375 C 1024.285156 733.015625 1022.496094 734.792969 1020.660156 736.621094 C 1019.058594 738.21875 1017.457031 739.8125 1015.808594 741.453125 C 1004.300781 751.082031 994.472656 752.945312 979.523438 753.625 C 956.917969 749.078125 941.136719 732.074219 925.671875 716.230469 C 923.492188 714.039062 921.3125 711.84375 919.066406 709.585938 C 912.167969 702.632812 905.308594 695.648438 898.445312 688.660156 C 893.75 683.914062 889.050781 679.171875 884.355469 674.433594 C 872.890625 662.863281 861.457031 651.261719 850.039062 639.640625 C 847.484375 640.894531 847.484375 640.894531 844.878906 642.171875 C 837.015625 646.003906 829.136719 649.804688 821.257812 653.605469 C 818.578125 654.917969 815.902344 656.230469 813.140625 657.582031 C 741.972656 691.746094 657.15625 694.148438 582.769531 668.730469 C 498.914062 638.0625 435.324219 578.527344 396.613281 498.265625 C 362.097656 420.964844 362.109375 333.339844 391.722656 254.6875 C 402.15625 228.679688 415.316406 205.597656 432.28125 183.214844 C 434.65625 180.015625 437.03125 176.816406 439.476562 173.523438 C 488.707031 110.660156 560.617188 72.808594 638.664062 59.277344 C 720.847656 49.671875 801.53125 66.878906 868.855469 115.980469 Z M 469.839844 184.421875 C 415.238281 249.058594 398.269531 325.691406 403.359375 408.214844 C 412.117188 481.3125 452.011719 549.269531 509.40625 594.84375 C 573.269531 643.476562 650.128906 660.699219 729.449219 651.585938 C 778.554688 643.644531 824.621094 623.066406 862.894531 591.429688 C 866.699219 588.351562 866.699219 588.351562 870.578125 585.210938 C 922.25 541.527344 956.042969 478.28125 965.726562 411.429688 C 972.214844 327.257812 955.21875 254.414062 901.507812 188.210938 C 846.414062 124.316406 775.582031 93.128906 692.578125 86.785156 C 605.964844 83.808594 528.226562 122.5 469.839844 184.421875 Z M 930.378906 562.5 C 925.949219 567.316406 921.617188 572.222656 917.324219 577.164062 C 904.375 591.753906 890.796875 604.757812 875.75 617.140625 C 893.585938 638.945312 913.554688 658.460938 933.59375 678.214844 C 954.191406 661.269531 972.75 642.5625 991.433594 623.570312 C 979 608.371094 965.71875 594.28125 951.867188 580.378906 C 950.132812 578.628906 948.398438 576.878906 946.613281 575.078125 C 939.65625 566.433594 939.65625 566.433594 930.378906 562.5 Z M 1005.265625 650.792969 C 1003.148438 652.945312 1001.027344 655.101562 998.839844 657.320312 C 995.394531 660.800781 995.394531 660.800781 991.875 664.351562 C 988.277344 668.03125 988.277344 668.03125 984.605469 671.785156 C 982.183594 674.238281 979.761719 676.691406 977.261719 679.21875 C 971.261719 685.296875 965.273438 691.390625 959.300781 697.5 C 965.410156 710.242188 965.410156 710.242188 975.367188 720 C 982.699219 722.039062 982.699219 722.039062 991.433594 720 C 999.539062 714.074219 1006.242188 706.988281 1013.125 699.707031 C 1015.019531 697.796875 1016.914062 695.882812 1018.863281 693.914062 C 1029.886719 682.714844 1029.886719 682.714844 1036.425781 668.570312 C 1032.804688 662.433594 1032.804688 662.433594 1027.386719 656.71875 C 1025.644531 654.714844 1023.898438 652.714844 1022.101562 650.652344 C 1014.996094 644.085938 1012.507812 644.519531 1005.265625 650.792969 Z M 1005.265625 650.792969 "
        fill-opacity="1" fill-rule="nonzero" />
    <path fill="#f2703f"
        d="M 772.914062 122.144531 C 776.296875 123.269531 779.675781 124.398438 783.160156 125.558594 C 847.089844 149.539062 898.546875 201.722656 926.777344 263.308594 C 954.96875 330.605469 955.339844 406.289062 928.03125 473.691406 C 915.640625 502.597656 900.582031 526.558594 878.960938 549.640625 C 876.011719 553.03125 876.011719 553.03125 873 556.484375 C 830.0625 603.28125 764.394531 630.75 701.691406 634.457031 C 621.667969 637.128906 553.308594 610.398438 494.542969 555.667969 C 444.046875 503.167969 420.460938 433.910156 421.34375 361.949219 C 423.859375 282.582031 459.84375 220.152344 516.839844 166.542969 C 586.417969 107.109375 687.402344 93.125 772.914062 122.144531 Z M 512.621094 212.144531 C 477.34375 253.691406 456.019531 302.433594 451.5625 356.785156 C 451.394531 358.828125 451.222656 360.871094 451.050781 362.976562 C 448.355469 425.203125 473.699219 484.359375 514.453125 529.953125 C 556.988281 574.5625 611.394531 601.09375 673.296875 604.285156 C 737.277344 604.730469 796 585.019531 844.417969 542.324219 C 885.3125 501.820312 913.902344 446.890625 917.523438 388.929688 C 917.695312 386.410156 917.863281 383.890625 918.039062 381.292969 C 920.023438 323.316406 901.621094 265.253906 862.894531 221.785156 C 861.261719 219.664062 859.628906 217.542969 857.949219 215.359375 C 823.457031 171.847656 770.039062 150.011719 717.082031 139.21875 C 640.03125 132.574219 566.847656 155.605469 512.621094 212.144531 Z M 512.621094 212.144531 "
        fill-opacity="1" fill-rule="nonzero" />
    <path fill="#f37242"
        d="M 818.507812 219.976562 C 837.132812 223.703125 846.660156 239.222656 856.742188 254.332031 C 889.199219 307.117188 899.546875 363.773438 885.390625 424.285156 C 882.6875 431.359375 879.707031 437.089844 875.75 443.570312 C 868.316406 444.375 868.316406 444.375 859.679688 443.570312 C 854.15625 438.058594 854.15625 438.058594 850.039062 430.714844 C 850.503906 423.417969 850.503906 423.417969 852.652344 415.246094 C 864.257812 360.820312 853.84375 313.304688 824.332031 266.785156 C 820.765625 262.402344 817.101562 258.097656 813.285156 253.929688 C 805.050781 244.285156 805.050781 244.285156 803.445312 235.246094 C 805.660156 225.550781 808.902344 222.449219 818.507812 219.976562 Z M 818.507812 219.976562 "
        fill-opacity="1" fill-rule="nonzero" />
    </g>
</svg>